<?xml version="1.0" encoding="utf-8"?>
<!-- Generator: Adobe Illustrator 24.1.0, SVG Export Plug-In . SVG Version: 6.00 Build 0)  -->
<svg version="1.0" id="Layer_1" xmlns="http://www.w3.org/2000/svg" xmlns:xlink="http://www.w3.org/1999/xlink" x="0px" y="0px"
	 viewBox="0 0 400 400" style="enable-background:new 0 0 400 400;" xml:space="preserve">
<style type="text/css">
	.st0{enable-background:new    ;}
	.st1{fill:#FFFFFF;}
</style>
<g class="st0">
	<path d="M314.8,84.6c5.9,0,10.8,2,14.9,6c4,4,6,9,6,14.9v240.5c0,5.7-2,10.6-6,14.7c-4,4.1-9,6.2-14.9,6.2H84.7
		c-5.9,0-10.8-2.1-14.9-6.2c-4-4.1-6-9-6-14.7V105.6c0-5.9,2-10.8,6-14.9c4-4,9-6,14.9-6h63.1V64.4c0-8.5,3.1-15.9,9.2-22.1
		c6.1-6.2,13.5-9.3,22.2-9.3H221c8.7,0,16.1,3.1,22.2,9.3c6.1,6.2,9.2,13.6,9.2,22.1v20.3H314.8z M314.8,346.1V105.6h-62.4v21.6
		c-1.7,7-5.2,10.5-10.5,10.5c-5.7,0-9.2-3.5-10.5-10.5v-21.6h-62.7v21.6c-1.1,7-4.6,10.5-10.5,10.5c-5.4,0-8.9-3.5-10.5-10.5v-21.6
		H84.7v240.5H314.8z M168.7,64.4v20.3h62.7V64.4c0-2.8-1-5.3-3.1-7.4c-2.1-2.1-4.5-3.1-7.4-3.1h-41.8c-2.8,0-5.3,1-7.4,3.1
		C169.8,59.1,168.7,61.5,168.7,64.4z"/>
</g>
</svg>
